<?xml version="1.0" encoding="UTF-8"?><svg id="_Слой_1" xmlns="http://www.w3.org/2000/svg" viewBox="0 0 274.24 241.79"><defs><style>.cls-1{fill-rule:evenodd;}.cls-1,.cls-2{fill:#fff;stroke-width:0px;}</style></defs><path class="cls-2" d="M2.91,233.45c0,1.22.26,2.12.78,2.71.52.58,1.16.88,1.9.88s1.4-.31,1.94-.91c.53-.61.8-1.54.8-2.82,0-1.21-.26-2.11-.78-2.72-.53-.61-1.15-.91-1.88-.91-.73,0-1.37.32-1.92.97-.55.64-.83,1.57-.83,2.8M1.38,241.79v-13.14s1.54,0,1.54,0v1.23c.36-.48.77-.84,1.24-1.08.45-.24,1.01-.36,1.67-.36.86,0,1.61.2,2.26.62.66.42,1.16,1.01,1.49,1.77.34.76.5,1.6.5,2.51,0,.97-.18,1.84-.56,2.62-.36.78-.9,1.37-1.6,1.79-.7.41-1.44.62-2.21.62-.56,0-1.07-.11-1.52-.35-.45-.22-.81-.5-1.11-.85v4.63s-1.69,0-1.69,0Z"/><path class="cls-2" d="M15.32,238.16v-9.51s1.53,0,1.53,0v1.44c.39-.68.75-1.12,1.08-1.33.32-.22.69-.32,1.08-.32.58,0,1.16.17,1.75.52l-.59,1.49c-.41-.24-.82-.34-1.24-.34-.37,0-.71.1-1,.32-.3.21-.51.5-.63.88-.18.57-.28,1.2-.28,1.88v4.98"/><path class="cls-2" d="M26.27,232.48h5.6c-.07-.8-.3-1.4-.65-1.8-.54-.62-1.24-.93-2.1-.93-.78,0-1.44.24-1.97.74-.53.49-.82,1.16-.89,1.98M31.85,235.09l1.75.2c-.28.97-.79,1.73-1.53,2.27-.76.53-1.71.8-2.86.8-1.47,0-2.63-.43-3.48-1.28-.87-.86-1.3-2.06-1.3-3.6,0-1.6.44-2.84,1.3-3.72.87-.88,2-1.32,3.38-1.32,1.33,0,2.43.42,3.28,1.29.85.87,1.28,2.08,1.28,3.66,0,.09-.01.24-.01.43h-7.47c.07,1.04.38,1.84.93,2.4.57.56,1.25.84,2.1.84.61,0,1.15-.15,1.59-.47.44-.31.79-.8,1.05-1.48"/><path class="cls-2" d="M38.96,238.16v-9.51s1.51,0,1.51,0v1.33c.31-.46.73-.84,1.26-1.13.52-.28,1.11-.42,1.78-.42.73,0,1.34.14,1.82.43.47.29.81.7,1.01,1.23.8-1.11,1.82-1.66,3.09-1.66.99,0,1.76.25,2.3.77.53.52.79,1.33.79,2.41v6.54s-1.69,0-1.69,0v-6c0-.65-.05-1.11-.17-1.39-.11-.28-.3-.51-.59-.68-.29-.17-.62-.26-1.01-.26-.71,0-1.29.22-1.76.67-.46.44-.7,1.15-.7,2.13v5.53s-1.7,0-1.7,0v-6.18c0-.72-.13-1.25-.42-1.62-.28-.35-.73-.53-1.36-.53-.48,0-.92.11-1.33.36-.41.24-.7.59-.88,1.05-.18.46-.27,1.13-.27,1.99v4.94"/><path class="cls-2" d="M58.28,228.65h1.7s0,9.51,0,9.51h-1.7s0-9.51,0-9.51ZM58.28,225.02h1.7s0,1.85,0,1.85h-1.7s0-1.85,0-1.85Z"/><path class="cls-2" d="M72.34,238.16v-1.4c-.78,1.08-1.84,1.61-3.18,1.61-.59,0-1.14-.11-1.65-.32-.51-.21-.9-.48-1.14-.8-.25-.33-.42-.72-.53-1.2-.07-.32-.1-.81-.1-1.5v-5.89s1.69,0,1.69,0v5.27c0,.85.04,1.41.11,1.7.11.42.34.76.68,1,.35.24.78.36,1.29.36.5,0,.98-.13,1.43-.37.45-.26.76-.59.94-1.02.19-.43.29-1.05.29-1.86v-5.09s1.69,0,1.69,0v9.51"/><path class="cls-2" d="M79.74,238.16v-9.51s1.52,0,1.52,0v1.33c.32-.46.73-.84,1.26-1.13.52-.28,1.11-.42,1.78-.42.74,0,1.35.14,1.82.43.49.29.81.7,1.01,1.23.79-1.11,1.83-1.66,3.09-1.66,1,0,1.76.25,2.3.77.53.52.8,1.33.8,2.41v6.54s-1.69,0-1.69,0v-6c0-.65-.05-1.11-.16-1.39-.11-.28-.31-.51-.6-.68-.3-.17-.63-.26-1.02-.26-.7,0-1.29.22-1.75.67-.46.44-.7,1.15-.7,2.13v5.53s-1.7,0-1.7,0v-6.18c0-.72-.14-1.25-.42-1.62-.28-.35-.73-.53-1.36-.53-.47,0-.91.11-1.31.36-.41.24-.71.59-.89,1.05-.18.46-.28,1.13-.28,1.99v4.94"/><path class="cls-2" d="M106.96,235.31l1.68-.25c.09.64.36,1.13.79,1.47.42.34,1.02.51,1.81.51s1.36-.15,1.73-.46c.38-.3.57-.66.57-1.06,0-.37-.17-.65-.51-.86-.23-.15-.81-.32-1.74-.54-1.24-.3-2.1-.56-2.58-.78-.48-.22-.85-.52-1.1-.91-.24-.38-.37-.81-.37-1.27,0-.43.1-.82.31-1.18.2-.37.48-.66.83-.9.27-.18.62-.34,1.08-.47.46-.13.94-.18,1.46-.18.79,0,1.48.1,2.07.32.6.21,1.03.5,1.32.86.29.37.47.86.58,1.47l-1.65.22c-.07-.5-.29-.87-.66-1.15-.36-.27-.88-.41-1.53-.41-.78,0-1.33.12-1.67.36-.33.24-.5.54-.5.86,0,.21.07.4.21.56.14.18.36.33.65.44.17.07.67.19,1.5.41,1.2.31,2.04.56,2.51.75.47.19.85.48,1.12.84.27.37.4.83.4,1.38s-.16,1.04-.49,1.52c-.33.47-.81.84-1.43,1.1-.63.26-1.33.39-2.11.39-1.3,0-2.3-.25-2.97-.77-.68-.51-1.13-1.28-1.31-2.29"/><path class="cls-2" d="M122.05,233.45c0,1.22.26,2.12.78,2.71.52.58,1.16.88,1.9.88.75,0,1.4-.31,1.94-.91.54-.61.8-1.54.8-2.82s-.26-2.11-.78-2.72c-.53-.61-1.16-.91-1.89-.91s-1.37.32-1.92.97c-.55.64-.83,1.57-.83,2.8M120.51,241.79v-13.14s1.54,0,1.54,0v1.23c.36-.48.77-.84,1.24-1.08.45-.24,1.02-.36,1.66-.36.86,0,1.61.2,2.27.62.66.42,1.15,1.01,1.48,1.77.34.76.51,1.6.51,2.51,0,.97-.18,1.84-.56,2.62-.36.78-.91,1.37-1.6,1.79-.7.41-1.44.62-2.21.62-.57,0-1.08-.11-1.53-.35-.45-.22-.81-.5-1.11-.85v4.63s-1.69,0-1.69,0Z"/><path class="cls-2" d="M134.48,228.65h1.7s0,9.51,0,9.51h-1.7s0-9.51,0-9.51ZM134.48,225.02h1.7s0,1.85,0,1.85h-1.7s0-1.85,0-1.85Z"/><path class="cls-2" d="M141.96,238.16v-9.51s1.53,0,1.53,0v1.44c.39-.68.75-1.12,1.08-1.33.33-.22.69-.32,1.09-.32.57,0,1.15.17,1.74.52l-.59,1.49c-.4-.24-.82-.34-1.24-.34-.37,0-.7.1-1.01.32-.29.21-.5.5-.62.88-.19.57-.29,1.2-.29,1.88v4.98"/><path class="cls-2" d="M151.64,228.65h1.7s0,9.51,0,9.51h-1.7s0-9.51,0-9.51ZM151.64,225.02h1.7s0,1.85,0,1.85h-1.7s0-1.85,0-1.85Z"/><path class="cls-2" d="M162.86,236.71l.24,1.43c-.47.1-.9.14-1.28.14-.61,0-1.09-.09-1.43-.28-.34-.18-.59-.43-.72-.73-.14-.3-.21-.94-.21-1.9v-5.48h-1.25s0-1.24,0-1.24h1.25v-2.36s1.69-.96,1.69-.96v3.32h1.71s0,1.24,0,1.24h-1.71v5.56c0,.46.03.75.09.88.06.13.15.23.29.32.13.08.33.12.58.12.19,0,.44-.03.75-.06"/><path class="cls-2" d="M167.06,235.31l1.68-.25c.1.64.36,1.13.79,1.47.42.34,1.03.51,1.8.51s1.36-.15,1.74-.46c.38-.3.56-.66.56-1.06,0-.37-.16-.65-.5-.86-.23-.15-.81-.32-1.73-.54-1.25-.3-2.12-.56-2.59-.78-.48-.22-.85-.52-1.09-.91-.25-.38-.38-.81-.38-1.27,0-.43.11-.82.31-1.18.21-.37.49-.66.84-.9.26-.18.62-.34,1.08-.47.46-.13.94-.18,1.46-.18.78,0,1.48.1,2.07.32.6.21,1.03.5,1.31.86.29.37.48.86.58,1.47l-1.65.22c-.08-.5-.3-.87-.66-1.15-.36-.27-.87-.41-1.54-.41-.77,0-1.34.12-1.67.36-.33.24-.5.54-.5.86,0,.21.07.4.21.56.14.18.35.33.65.44.17.07.68.19,1.5.41,1.2.31,2.04.56,2.51.75.47.19.85.48,1.12.84.28.37.41.83.41,1.38s-.16,1.04-.5,1.52c-.33.47-.81.84-1.43,1.1-.62.26-1.32.39-2.11.39-1.3,0-2.3-.25-2.97-.77-.69-.51-1.12-1.28-1.3-2.29"/><path class="cls-2" d="M196.03,235.32l-3.1-3.65c-.92.52-1.54,1-1.85,1.44-.33.44-.48.88-.48,1.32,0,.53.23,1.08.66,1.65.45.58,1.08.86,1.9.86.5,0,1.03-.15,1.57-.45.54-.29.98-.69,1.3-1.17M193.66,229.77c.73-.41,1.21-.77,1.42-1.09.23-.31.33-.66.33-1.02,0-.46-.14-.81-.45-1.1-.29-.28-.66-.43-1.12-.43s-.85.14-1.14.43c-.31.28-.46.62-.46,1.03,0,.2.07.42.16.65.12.22.28.45.51.71l.75.84ZM197.1,236.6c-.57.59-1.17,1.04-1.83,1.33-.66.31-1.38.45-2.14.45-1.42,0-2.54-.45-3.37-1.36-.68-.74-1.01-1.57-1.01-2.49,0-.81.27-1.54.82-2.19.55-.66,1.37-1.23,2.47-1.73-.62-.68-1.04-1.23-1.24-1.66-.21-.42-.32-.83-.32-1.23,0-.79.33-1.48.99-2.05.65-.58,1.47-.87,2.45-.87.94,0,1.72.27,2.33.82.6.55.89,1.22.89,1.98,0,1.25-.87,2.32-2.61,3.2l2.49,3c.28-.53.51-1.13.66-1.83l1.76.36c-.31,1.15-.71,2.08-1.24,2.83.65.81,1.36,1.48,2.18,2.02l-1.15,1.29c-.68-.42-1.39-1.04-2.12-1.86"/><path class="cls-2" d="M215.74,238.16l-3.06-9.51h1.76s1.59,5.49,1.59,5.49l.59,2.04c.02-.11.19-.76.52-1.96l1.59-5.57h1.76s1.5,5.51,1.5,5.51l.5,1.82.57-1.84,1.71-5.49h1.64s-3.12,9.51-3.12,9.51h-1.77s-1.59-5.7-1.59-5.7l-.39-1.62-2.03,7.32"/><path class="cls-2" d="M231.06,228.65h1.71s0,9.51,0,9.51h-1.71s0-9.51,0-9.51ZM231.06,225.02h1.71s0,1.85,0,1.85h-1.71s0-1.85,0-1.85Z"/><path class="cls-2" d="M238.58,238.16v-9.51s1.53,0,1.53,0v1.35c.73-1.04,1.79-1.56,3.18-1.56.61,0,1.16.1,1.67.3.51.21.88.48,1.14.82.25.33.42.73.53,1.19.05.3.09.82.09,1.56v5.86s-1.7,0-1.7,0v-5.79c0-.65-.06-1.15-.2-1.48-.13-.32-.35-.58-.69-.77-.33-.2-.73-.29-1.19-.29-.72,0-1.34.21-1.87.65-.52.44-.78,1.27-.78,2.48v5.2"/><path class="cls-2" d="M253.81,232.48h5.59c-.06-.8-.28-1.4-.63-1.8-.55-.62-1.24-.93-2.1-.93-.79,0-1.45.24-1.98.74-.52.49-.82,1.16-.88,1.98M259.38,235.09l1.77.2c-.27.97-.78,1.73-1.53,2.27-.75.53-1.71.8-2.87.8-1.47,0-2.63-.43-3.48-1.28-.87-.86-1.29-2.06-1.29-3.6s.42-2.84,1.3-3.72c.87-.88,1.99-1.32,3.38-1.32,1.33,0,2.43.42,3.27,1.29.85.87,1.28,2.08,1.28,3.66,0,.09,0,.24,0,.43h-7.48c.06,1.04.38,1.84.94,2.4.56.56,1.25.84,2.09.84.62,0,1.15-.15,1.6-.47.44-.31.78-.8,1.03-1.48"/><path class="cls-2" d="M265.81,235.31l1.68-.25c.1.64.36,1.13.78,1.47.43.34,1.03.51,1.82.51s1.36-.15,1.73-.46c.38-.3.57-.66.57-1.06,0-.37-.17-.65-.5-.86-.23-.15-.81-.32-1.73-.54-1.24-.3-2.11-.56-2.59-.78-.47-.22-.84-.52-1.09-.91-.24-.38-.38-.81-.38-1.27,0-.43.11-.82.31-1.18.2-.37.49-.66.84-.9.25-.18.62-.34,1.07-.47.46-.13.95-.18,1.47-.18.79,0,1.48.1,2.07.32.6.21,1.04.5,1.31.86.29.37.48.86.59,1.47l-1.66.22c-.08-.5-.3-.87-.65-1.15-.37-.27-.88-.41-1.54-.41-.78,0-1.34.12-1.67.36-.33.24-.51.54-.51.86,0,.21.08.4.2.56.15.18.36.33.66.44.17.07.68.19,1.51.41,1.19.31,2.03.56,2.52.75.46.19.84.48,1.11.84.27.37.4.83.4,1.38s-.17,1.04-.5,1.52c-.33.47-.8.84-1.42,1.1-.61.26-1.33.39-2.11.39-1.31,0-2.3-.25-2.99-.77-.68-.51-1.11-1.28-1.3-2.29"/><path class="cls-2" d="M42.09,210.08h-8.73s-1.3,2.71-1.3,2.71c-.18.38-.27.67-.27.88,0,.43.31.71.93.87v.45s-6.35,0-6.35,0v-.45c.38-.08.67-.22.87-.4.2-.19.42-.56.68-1.1l7.06-14.76c.23-.46.32-.83.32-1.12,0-.44-.26-.75-.8-.93v-.46s6.81,0,6.81,0v.46c-.55.16-.84.44-.84.85,0,.26.09.58.27.93l7.32,14.79c.31.63.59,1.06.83,1.29.22.23.55.38.94.46v.45s-7.06,0-7.06,0v-.45c.6-.11.92-.4.92-.87,0-.2-.09-.48-.27-.87M40.88,207.46l-3.1-6.84-3.17,6.84h6.27ZM63.71,201.84v11.67c0,.3.07.51.19.65.13.16.36.27.7.38v.45s-5.64,0-5.64,0v-.45c.34-.11.58-.22.71-.38.12-.15.19-.36.19-.65v-16.27c0-.28-.07-.49-.19-.64-.14-.15-.38-.28-.71-.37v-.46s6.53,0,6.53,0v.46c-.4.1-.61.33-.61.65,0,.22.13.48.39.74l10.65,11.03v-11.41c0-.28-.08-.49-.21-.64-.12-.15-.36-.28-.7-.37v-.46s5.63,0,5.63,0v.46c-.34.09-.57.22-.7.37-.13.15-.2.37-.2.64v16.27c0,.3.07.51.2.65.13.16.37.27.7.38v.45s-6.05,0-6.05,0v-.45c.4-.09.59-.28.59-.6,0-.19-.23-.53-.7-1l-10.78-11.1ZM101.7,198.93v14.58c0,.3.06.51.2.65.12.16.36.27.7.38v.45s-5.99,0-5.99,0v-.45c.33-.11.57-.22.7-.38.13-.15.2-.36.2-.65v-14.58h-5.95c-.3,0-.51.07-.65.2-.15.12-.27.35-.37.7h-.45s0-4.96,0-4.96h.45c.1.34.22.57.37.71.14.13.35.18.65.18h16.09c.29,0,.52-.05.66-.18.14-.13.27-.37.36-.71h.46s0,4.96,0,4.96h-.46c-.09-.35-.22-.58-.36-.7-.15-.14-.38-.2-.66-.2h-5.94ZM123.62,206.55v5.29h12.35c.28,0,.51-.07.65-.2.16-.12.27-.36.37-.7h.45s0,4.96,0,4.96h-.45c-.1-.34-.21-.58-.37-.7-.14-.13-.37-.2-.65-.2h-17.45s0-.45,0-.45c.35-.11.58-.22.71-.38.13-.15.2-.36.2-.65v-16.25c0-.29-.07-.5-.2-.66-.13-.15-.36-.28-.71-.37v-.46s17.13,0,17.13,0c.29,0,.5-.05.65-.19.15-.13.27-.37.35-.7h.48s0,4.96,0,4.96h-.48c-.08-.33-.2-.57-.35-.7-.15-.13-.36-.2-.65-.2h-12.03v4.57h7.8c.29,0,.49-.06.64-.2.17-.13.28-.37.38-.7h.45s0,4.84,0,4.84h-.45c-.1-.32-.21-.55-.38-.7-.14-.13-.35-.2-.64-.2h-7.8ZM178.75,210.1h-8.72s-1.31,2.7-1.31,2.7c-.17.38-.27.67-.27.88,0,.43.32.71.94.87v.46s-6.35,0-6.35,0v-.46c.38-.08.66-.21.86-.39.2-.19.42-.56.67-1.1l7.07-14.76c.22-.46.34-.84.34-1.13,0-.43-.27-.75-.81-.93v-.46s6.82,0,6.82,0v.46c-.56.16-.85.44-.85.84,0,.26.09.57.26.92l7.33,14.79c.31.63.58,1.06.82,1.28.23.23.54.38.94.46v.46s-7.07,0-7.07,0v-.46c.63-.1.93-.39.93-.87,0-.2-.1-.5-.27-.88l-1.33-2.7ZM177.54,207.47l-3.11-6.84-3.15,6.84h6.26ZM231.52,206.04l-2.89,2.33v5.15c0,.3.06.51.22.68.12.14.37.26.69.35v.46s-6,0-6,0v-.46c.34-.1.56-.21.7-.37.13-.15.2-.36.2-.66v-16.27c0-.28-.07-.49-.2-.64-.14-.15-.36-.28-.7-.37v-.46s6,0,6,0v.46c-.34.08-.57.21-.7.35-.14.17-.2.38-.2.66v6.74s7.93-6.46,7.93-6.46c.36-.3.54-.54.54-.71,0-.27-.28-.48-.81-.57v-.46s7.86,0,7.86,0v.46c-.34.07-.58.15-.7.23-.15.08-.56.4-1.23.94l-1.09.91-6.54,5.25,7.41,8.91c.69.83,1.19,1.36,1.49,1.6.31.23.69.4,1.16.47v.46s-7.51,0-7.51,0v-.46c.48-.1.73-.28.73-.53,0-.13-.22-.48-.67-1.04l-5.66-6.93ZM263.14,195.45c3.36,0,6.02.91,7.99,2.71,2.09,1.91,3.11,4.35,3.11,7.35,0,1.84-.5,3.56-1.5,5.15-1.95,3.11-5.13,4.66-9.55,4.66-3.34,0-5.99-.91-7.94-2.71-1.06-.97-1.86-2.12-2.41-3.48-.47-1.19-.7-2.44-.7-3.76,0-1.92.49-3.68,1.48-5.27,1.88-3.05,5.07-4.61,9.53-4.65M263.17,198.73c-1.84,0-3.36.53-4.6,1.63-1.43,1.29-2.17,2.96-2.17,5.03s.73,3.76,2.17,5.05c1.23,1.08,2.77,1.62,4.63,1.62s3.37-.54,4.58-1.62c.73-.64,1.29-1.44,1.65-2.38.36-.82.52-1.7.52-2.58,0-2.18-.72-3.89-2.18-5.13-1.22-1.07-2.78-1.6-4.62-1.63M200.72,211.84h11.82c.28,0,.52-.06.66-.2.14-.12.27-.36.37-.7h.44s0,4.96,0,4.96h-.44c-.1-.34-.23-.58-.37-.7-.14-.13-.38-.2-.66-.2h-16.9s0-.46,0-.46c.34-.1.56-.21.7-.37.13-.15.19-.36.19-.66v-16.25c0-.29-.07-.51-.19-.65-.14-.15-.36-.28-.7-.37v-.46s6,0,6,0v.46c-.34.08-.58.21-.7.35-.13.17-.21.38-.21.67v14.58ZM18.46,197.41l-2.29,4.53-.39-.23c.02-.09.02-.16.02-.22,0-.33-.27-.66-.82-1.03-1.68-1.16-3.64-1.74-5.89-1.74-1,0-1.87.13-2.63.36-.56.18-1,.48-1.36.85-.34.37-.51.78-.51,1.22,0,.72.43,1.21,1.31,1.47.46.14,1.42.27,2.91.42l2.2.23c1.31.14,2.37.33,3.18.56.82.26,1.52.61,2.17,1.03.62.47,1.14,1.08,1.5,1.82.37.74.57,1.55.57,2.4,0,1.35-.44,2.55-1.32,3.59-.78.96-2.01,1.67-3.67,2.13-1.24.35-2.57.52-3.98.52-2.55,0-5.05-.62-7.54-1.84-.52-.23-.84-.37-.93-.37-.13,0-.32.12-.58.32l-.41-.22,2.08-4.71.41.21v.18c0,.43.18.81.61,1.16.59.54,1.54,1.03,2.82,1.42,1.27.39,2.48.58,3.62.58,1.26,0,2.32-.21,3.21-.63.49-.23.87-.54,1.16-.93.3-.38.43-.8.43-1.22,0-.62-.34-1.08-1.01-1.35-.48-.18-1.46-.36-2.91-.51l-2.17-.24c-1.45-.15-2.49-.29-3.09-.43-.6-.14-1.2-.36-1.8-.66-.85-.42-1.52-1.06-2-1.88-.44-.77-.67-1.65-.67-2.63,0-1.63.57-2.97,1.68-4.04,1.48-1.39,3.66-2.08,6.59-2.08,1.22,0,2.37.12,3.43.37,1.06.26,2.39.72,3.98,1.38.53.22.88.32.99.32.2,0,.43-.1.69-.32l.39.21Z"/><path class="cls-1" d="M152.17,199.93c-3.03,0-5.47,2.45-5.47,5.46,0,3.03,2.45,5.47,5.47,5.47,3.01,0,5.46-2.45,5.46-5.47,0-3.01-2.45-5.46-5.46-5.46M152.17,208.44c-1.69,0-3.05-1.36-3.05-3.05s1.36-3.04,3.05-3.04,3.03,1.36,3.03,3.04c0,1.69-1.36,3.05-3.03,3.05"/><path class="cls-1" d="M200.81,73.03l-53.46-53.46c-5.64-5.64-14.84-5.64-20.47,0l-53.46,53.46c-5.63,5.64-5.63,14.83,0,20.47l53.46,53.46c5.63,5.63,14.83,5.63,20.47,0l53.46-53.46c5.64-5.64,5.64-14.84,0-20.47M106.96,53.58c.4-.43.44-.07,2.46-1.59,1.31-.99,3.05-2.76,3.82-3.61,1.56-1.7,3.68-4.99,3.86-5.21.24-.25.74-.1.94.08,1.12,1.02-1.65,4.9-3,6.78,1.13,3.38,4.03,10.4,10.57,16.38,6.33,5.79,14.01,8.28,17.35,4.62,4.55-4.98-8.18-15.21-14-22.41-4.78-5.93-6.39-11.3-3.01-15.01,4.66-5.1,15.66-1.76,23.24,5.17,4.66,4.26,8.15,9.39,9.88,11.83,1.45-.47,3.41-1.48,4.17-.79.21.19.3.51.15.68-.16.17-1.29.7-2.63,1.74-1.32.89-3.36,2.7-4.29,3.72l-2.53,2.77c-.27.3-.71.21-.91.02-1.12-1.01,1.49-3.86,2.68-5.43-1.78-4.61-3.83-9.36-9.47-14.51-5.71-5.21-13.79-8.39-17.36-4.48-4.52,4.94,8.11,15.3,14.63,23.53,4.99,6.27,5.72,10.22,2.72,13.5-4.98,5.45-15.31,2.64-24.63-5.88-4.46-4.07-7.26-8.12-10.18-12.2-1.61.64-3.57,1.67-4.33.97-.14-.13-.33-.47-.15-.68M108.12,113.3c-.12.14-.47.34-.68.15-.43-.4-.06-.45-1.58-2.47-.99-1.3-2.76-3.03-3.62-3.82-1.7-1.56-4.99-3.67-5.2-3.87-.26-.23-.12-.73.08-.95,1.02-1.12,4.89,1.66,6.77,3,3.38-1.13,10.4-4.03,16.38-10.57,5.78-6.33,8.28-14.02,4.62-17.36-4.98-4.55-15.22,8.18-22.4,14-5.94,4.78-11.31,6.39-15.02,3-5.1-4.66-1.76-15.66,5.17-23.24,4.26-4.66,9.4-8.15,11.84-9.87-.48-1.46-1.49-3.41-.8-4.19.19-.2.52-.3.69-.15.17.16.7,1.29,1.74,2.63.9,1.32,2.7,3.36,3.72,4.3l2.77,2.53c.3.28.22.71.02.91-1.02,1.12-3.87-1.49-5.44-2.68-4.61,1.81-9.36,3.84-14.51,9.47-5.22,5.71-8.39,13.79-4.48,17.37,4.94,4.52,15.3-8.11,23.53-14.62,6.28-4.99,10.23-5.72,13.51-2.74,5.44,4.98,2.63,15.32-5.89,24.63-4.07,4.46-8.12,7.26-12.19,10.17.63,1.61,1.66,3.57.96,4.33M167.28,112.94c-.39.43-.44.07-2.46,1.58-1.3,1-3.04,2.76-3.82,3.62-1.56,1.7-3.67,5-3.87,5.21-.23.25-.74.1-.95-.09-1.12-1.03,1.65-4.88,3-6.78-1.13-3.38-4.03-10.4-10.56-16.37-6.33-5.79-14.02-8.28-17.36-4.62-4.54,4.98,8.18,15.21,14,22.4,4.79,5.95,6.4,11.31,3.02,15.01-4.67,5.11-15.67,1.77-23.25-5.16-4.66-4.26-8.14-9.4-9.87-11.83-1.45.46-3.41,1.48-4.17.79-.22-.19-.31-.51-.15-.68.16-.16,1.29-.7,2.63-1.74,1.33-.89,3.36-2.71,4.29-3.71l2.53-2.77c.27-.3.71-.21.92-.03,1.1,1.01-1.5,3.87-2.68,5.44,1.79,4.61,3.84,9.36,9.47,14.52,5.71,5.21,13.78,8.38,17.36,4.47,4.51-4.94-8.12-15.29-14.64-23.53-4.98-6.27-5.72-10.22-2.72-13.51,4.98-5.44,15.3-2.64,24.62,5.88,4.46,4.08,7.27,8.13,10.19,12.21,1.61-.65,3.56-1.68,4.33-.97.13.12.33.47.14.68M181.6,95.32c-4.26,4.66-9.4,8.14-11.84,9.87.47,1.46,1.49,3.41.79,4.17-.19.21-.51.3-.68.15-.17-.15-.7-1.28-1.75-2.62-.9-1.32-2.7-3.36-3.72-4.29l-2.77-2.53c-.3-.28-.22-.71-.03-.92,1.02-1.11,3.87,1.49,5.44,2.68,4.61-1.79,9.36-3.83,14.51-9.46,5.22-5.7,8.39-13.79,4.48-17.37-4.95-4.51-15.3,8.11-23.53,14.64-6.28,4.99-10.23,5.72-13.51,2.73-5.45-4.98-2.64-15.31,5.88-24.63,4.08-4.46,8.12-7.27,12.2-10.18-.64-1.6-1.66-3.56-.96-4.33.13-.14.47-.33.68-.15.43.39.07.44,1.58,2.47,1,1.3,2.76,3.04,3.61,3.82,1.7,1.55,5,3.67,5.21,3.86.25.23.1.74-.08.95-1.02,1.11-4.89-1.66-6.79-3.01-3.37,1.13-10.4,4.04-16.38,10.57-5.78,6.33-8.28,14.03-4.61,17.36,4.98,4.55,15.2-8.19,22.4-14.01,5.94-4.78,11.3-6.39,15.01-3,5.11,4.66,1.77,15.66-5.16,23.24"/><path class="cls-1" d="M67.95,72.14L126,14.09c6.12-6.13,16.11-6.13,22.24,0l58.05,58.05c6.13,6.12,6.13,16.11,0,22.24l-58.05,58.04c-6.13,6.12-16.12,6.12-22.24,0l-58.05-58.04c-6.13-6.13-6.13-16.12,0-22.24M59.04,70.71L124.57,5.18c6.92-6.91,18.19-6.91,25.1,0l65.53,65.53c6.91,6.91,6.91,18.18,0,25.09l-65.53,65.53c-6.91,6.91-18.18,6.91-25.1,0L59.04,95.81c-6.91-6.91-6.91-18.18,0-25.09"/></svg>